<?xml version="1.0" standalone="no"?>
<!DOCTYPE svg PUBLIC "-//W3C//DTD SVG 20010904//EN"
 "http://www.w3.org/TR/2001/REC-SVG-20010904/DTD/svg10.dtd">
<svg version="1.0" xmlns="http://www.w3.org/2000/svg"
 width="453.000000pt" height="371.000000pt" viewBox="0 0 453.000000 371.000000"
 preserveAspectRatio="xMidYMid meet">

<g transform="translate(0.000000,371.000000) scale(0.100000,-0.100000)"
fill="#FFF" stroke="none">
<path d="M2045 3376 c-150 -30 -252 -82 -350 -180 -125 -125 -172 -245 -182
-465 -5 -114 -9 -137 -25 -153 -50 -50 -64 -176 -29 -254 21 -47 79 -107 120
-124 20 -8 34 -26 51 -68 29 -71 89 -176 135 -236 19 -26 35 -50 35 -54 0 -5
-114 -32 -252 -61 -139 -28 -274 -59 -300 -67 -60 -19 -142 -92 -173 -153 -25
-51 -105 -468 -105 -552 0 -59 43 -128 96 -155 38 -18 75 -19 1094 -22 778 -2
1065 0 1095 9 84 24 135 89 135 171 0 73 -80 499 -102 541 -28 56 -93 123
-141 146 -23 11 -161 45 -307 76 -146 30 -271 58 -278 60 -10 4 -4 16 20 44
43 51 120 181 150 253 16 41 31 61 50 69 40 16 98 77 119 123 35 78 21 204
-29 254 -16 16 -20 39 -25 153 -4 74 -14 161 -23 194 -57 213 -239 388 -456
440 -92 22 -240 27 -323 11z m300 -102 c190 -45 341 -191 390 -375 10 -36 15
-108 15 -217 0 -156 1 -163 19 -157 13 4 26 -3 41 -22 18 -24 21 -37 18 -87
-4 -54 -8 -62 -46 -98 -23 -21 -54 -41 -69 -44 -24 -5 -32 -16 -57 -79 -67
-174 -198 -341 -318 -406 -59 -32 -69 -34 -158 -34 -88 0 -100 3 -158 33 -121
63 -253 232 -320 409 -23 61 -31 72 -55 77 -15 3 -46 23 -69 44 -38 36 -42 44
-46 98 -3 50 0 63 18 87 15 19 28 26 41 22 18 -6 19 1 19 157 0 176 10 231 55
324 108 221 398 336 680 268z m-400 -1549 c83 -49 148 -68 235 -68 87 0 152
19 235 69 47 28 64 33 92 28 18 -3 35 -10 38 -14 8 -13 -90 -70 -167 -97 -155
-55 -346 -37 -487 45 -86 49 -88 62 -15 71 6 0 37 -15 69 -34z m-188 -57 c264
-200 619 -195 867 12 28 24 55 38 65 36 9 -3 93 -21 186 -41 94 -19 185 -40
204 -46 40 -14 106 -71 127 -111 8 -16 28 -104 45 -196 16 -92 31 -177 34
-189 l5 -23 -240 0 -240 0 0 33 c0 47 -19 69 -55 65 l-30 -3 -5 -140 -5 -140
-535 0 -535 0 -5 140 -5 140 -30 3 c-36 4 -55 -18 -55 -65 l0 -33 -240 0 -240
0 5 23 c3 12 18 97 34 189 17 92 35 178 42 190 17 34 70 88 103 105 21 11 350
89 428 102 4 0 38 -22 75 -51z m-207 -698 l0 -50 -205 0 c-218 0 -251 6 -275
49 -27 51 -29 51 235 51 l245 0 0 -50z m1750 34 c0 -26 -19 -53 -50 -69 -23
-12 -71 -15 -235 -15 l-205 0 0 50 0 50 245 0 c216 0 245 -2 245 -16z"/>
</g>
</svg>
